<?xml version="1.0" ?><!DOCTYPE svg  PUBLIC '-//W3C//DTD SVG 1.1//EN'  'http://www.w3.org/Graphics/SVG/1.1/DTD/svg11.dtd'><svg enable-background="new 0 0 24 24" height="24px" id="Layer_1" version="1.1" viewBox="0 0 24 24" width="24px" xml:space="preserve" xmlns="http://www.w3.org/2000/svg" xmlns:xlink="http://www.w3.org/1999/xlink"><g><g><g><path d="M23.1,21.6H0.9c-0.3,0-0.5-0.2-0.5-0.5V8.9c0-0.2,0.1-0.3,0.2-0.4c0.2-0.1,0.3-0.1,0.5,0L12,14.7l10.9-6.3     c0.2-0.1,0.3-0.1,0.5,0c0.2,0.1,0.2,0.3,0.2,0.4v12.2C23.6,21.4,23.4,21.6,23.1,21.6z M1.4,20.6h21.3V9.7l-10.4,6     c-0.2,0.1-0.3,0.1-0.5,0l-10.4-6V20.6z"/></g><g><path d="M12,12.6c-0.1,0-0.2,0-0.2-0.1L0.6,6.1C0.5,6,0.4,5.8,0.4,5.7V2.9c0-0.3,0.2-0.5,0.5-0.5h22.3c0.3,0,0.5,0.2,0.5,0.5v2.8     c0,0.2-0.1,0.3-0.2,0.4l-11.1,6.4C12.2,12.6,12.1,12.6,12,12.6z M1.4,5.4L12,11.5l10.6-6.1v-2H1.4V5.4z"/></g></g><g><g><path d="M1.9,21.6c-0.1,0-0.2,0-0.3-0.1c-0.2-0.2-0.3-0.5-0.1-0.7l6.3-7.9c0.2-0.2,0.5-0.3,0.7-0.1c0.2,0.2,0.3,0.5,0.1,0.7     l-6.3,7.9C2.2,21.5,2.1,21.6,1.9,21.6z"/></g><g><path d="M22.1,21.6c-0.1,0-0.3-0.1-0.4-0.2l-6.3-7.9c-0.2-0.2-0.1-0.5,0.1-0.7c0.2-0.2,0.5-0.1,0.7,0.1l6.3,7.9     c0.2,0.2,0.1,0.5-0.1,0.7C22.3,21.6,22.2,21.6,22.1,21.6z"/></g></g></g></svg>