<?xml version="1.0" encoding="iso-8859-1"?>
<!-- Generator: Adobe Illustrator 19.0.0, SVG Export Plug-In . SVG Version: 6.00 Build 0)  -->
<svg version="1.1" id="Capa_1" xmlns="http://www.w3.org/2000/svg" xmlns:xlink="http://www.w3.org/1999/xlink" x="0px" y="0px"
	 viewBox="0 0 480 480" style="enable-background:new 0 0 480 480;" xml:space="preserve">
<g>
	<g>
		<path d="M348,312c-17.673,0-32,14.327-32,32c0,17.673,14.327,32,32,32c17.673,0,32-14.327,32-32C380,326.327,365.673,312,348,312z
			 M348,360c-8.837,0-16-7.163-16-16s7.163-16,16-16s16,7.163,16,16S356.837,360,348,360z"/>
	</g>
</g>
<g>
	<g>
		<path d="M356,384h-16c-22.08,0.026-39.974,17.92-40,40v48c0,4.418,3.582,8,8,8h80c4.418,0,8-3.582,8-8v-48
			C395.974,401.92,378.08,384.026,356,384z M380,464h-64v-40c0-13.255,10.745-24,24-24h16c13.255,0,24,10.745,24,24V464z"/>
	</g>
</g>
<g>
	<g>
		<path d="M236,312c-17.673,0-32,14.327-32,32c0,17.673,14.327,32,32,32c17.673,0,32-14.327,32-32C268,326.327,253.673,312,236,312z
			 M236,360c-8.837,0-16-7.163-16-16s7.163-16,16-16s16,7.163,16,16S244.837,360,236,360z"/>
	</g>
</g>
<g>
	<g>
		<path d="M244,384h-16c-22.08,0.026-39.974,17.92-40,40v48c0,4.418,3.582,8,8,8h80c4.418,0,8-3.582,8-8v-48
			C283.974,401.92,266.08,384.026,244,384z M268,464h-64v-40c0-13.255,10.745-24,24-24h16c13.255,0,24,10.745,24,24V464z"/>
	</g>
</g>
<g>
	<g>
		<path d="M124,312c-17.673,0-32,14.327-32,32c0,17.673,14.327,32,32,32s32-14.327,32-32C156,326.327,141.673,312,124,312z M124,360
			c-8.837,0-16-7.163-16-16s7.163-16,16-16s16,7.163,16,16S132.837,360,124,360z"/>
	</g>
</g>
<g>
	<g>
		<path d="M132,384h-16c-22.08,0.026-39.974,17.92-40,40v48c0,4.418,3.582,8,8,8h80c4.418,0,8-3.582,8-8v-48
			C171.974,401.92,154.08,384.026,132,384z M156,464H92v-40c0-13.255,10.745-24,24-24h16c13.255,0,24,10.745,24,24V464z"/>
	</g>
</g>
<g>
	<g>
		<path d="M236,128H60c-22.08,0.026-39.974,17.92-40,40v112c0,4.418,3.582,8,8,8h112c4.418,0,8-3.582,8-8V176h88
			c4.418,0,8-3.582,8-8v-32C244,131.582,240.418,128,236,128z M228,160h-88c-4.418,0-8,3.582-8,8v104H36V168
			c0-13.255,10.745-24,24-24h168V160z"/>
	</g>
</g>
<g>
	<g>
		<path d="M452,0H180c-4.418,0-8,3.582-8,8v104h16V16h256v208H188v-32h-16v40c0,4.418,3.582,8,8,8h272c4.418,0,8-3.582,8-8V8
			C460,3.582,456.418,0,452,0z"/>
	</g>
</g>
<g>
	<g>
		<rect x="220" y="48" width="16" height="16"/>
	</g>
</g>
<g>
	<g>
		<rect x="252" y="48" width="160" height="16"/>
	</g>
</g>
<g>
	<g>
		<rect x="220" y="80" width="192" height="16"/>
	</g>
</g>
<g>
	<g>
		<rect x="260" y="112" width="152" height="16"/>
	</g>
</g>
<g>
	<g>
		<rect x="260" y="144" width="152" height="16"/>
	</g>
</g>
<g>
	<g>
		<rect x="260" y="176" width="152" height="16"/>
	</g>
</g>
<g>
	<g>
		<path d="M84,40c-17.673,0-32,14.327-32,32v16c0,17.673,14.327,32,32,32s32-14.327,32-32V72C116,54.327,101.673,40,84,40z M100,88
			c0,8.837-7.163,16-16,16s-16-7.163-16-16V72c0-8.837,7.163-16,16-16s16,7.163,16,16V88z"/>
	</g>
</g>
<g>
</g>
<g>
</g>
<g>
</g>
<g>
</g>
<g>
</g>
<g>
</g>
<g>
</g>
<g>
</g>
<g>
</g>
<g>
</g>
<g>
</g>
<g>
</g>
<g>
</g>
<g>
</g>
<g>
</g>
</svg>
