<svg id="Capa_1" enable-background="new 0 0 512 512" height="512" viewBox="0 0 512 512" width="512" xmlns="http://www.w3.org/2000/svg"><path d="m489.614 111.401c13.68-11.603 22.386-28.9 22.386-48.202 0-34.847-28.35-63.199-63.199-63.199s-63.201 28.352-63.201 63.199c0 19.301 8.707 36.599 22.388 48.201-13.681 11.602-22.388 28.899-22.388 48.2v48.2c0 8.284 6.716 15 15 15h1.066v34.267h-65.332c-8.284 0-15 6.716-15 15v49.267h-50.334v-34.267h1.066c8.284 0 15-6.716 15-15v-48.199c0-19.301-8.706-36.599-22.388-48.201 13.682-11.602 22.388-28.898 22.388-48.199 0-34.849-28.352-63.2-63.2-63.2-34.849 0-63.201 28.352-63.201 63.2 0 19.301 8.707 36.598 22.388 48.199-13.681 11.603-22.388 28.9-22.388 48.201v48.199c0 8.284 6.716 15 15 15h1.068v34.267h-1.068c-8.284 0-15 6.716-15 15v49.266h-50.332v-34.267h1.066c8.284 0 15-6.716 15-15v-48.2c0-19.301-8.707-36.598-22.388-48.199 13.681-11.602 22.388-28.899 22.388-48.2 0-34.849-28.352-63.2-63.201-63.2-34.847-.001-63.198 28.351-63.198 63.2 0 19.301 8.707 36.598 22.387 48.2-13.68 11.601-22.387 28.898-22.387 48.199v48.2c0 8.284 6.716 15 15 15h1.066v34.267h-1.066c-8.284 0-15 6.716-15 15v56.233c0 30.42 24.748 55.167 55.166 55.167h401.669c30.418 0 55.165-24.747 55.165-55.167v-184.766c0-8.284-6.716-15-15-15h-1.066v-34.267h1.066c8.284 0 15-6.716 15-15v-48.2c0-19.301-8.706-36.598-22.386-48.199zm-74.014-48.202c0-18.305 14.894-33.199 33.201-33.199 18.306 0 33.199 14.894 33.199 33.199 0 18.307-14.894 33.201-33.199 33.201-18.307.001-33.201-14.893-33.201-33.201zm66.401 96.401v33.2h-66.4v-33.2c0-18.306 14.894-33.199 33.201-33.199 18.305 0 33.199 14.893 33.199 33.199zm-291.335-32.133c0-18.307 14.894-33.2 33.201-33.2s33.2 14.894 33.2 33.2-14.893 33.199-33.2 33.199-33.201-14.893-33.201-33.199zm66.401 96.4v33.199h-66.401v-33.199c0-18.307 14.894-33.201 33.201-33.201s33.2 14.894 33.2 33.201zm-50.333 63.2h34.266v34.267h-34.266zm-176.734-95.333c0-18.307 14.893-33.2 33.199-33.2 18.307 0 33.201 14.894 33.201 33.2s-14.894 33.2-33.201 33.2c-18.306 0-33.199-14.894-33.199-33.2zm66.4 96.399v33.2h-66.4v-33.2c0-18.306 14.893-33.199 33.199-33.199 18.307 0 33.201 14.893 33.201 33.199zm-50.334 63.2h34.268v34.267h-34.268zm435.935 105.5c0 13.877-11.289 25.167-25.166 25.167h-401.669c-13.876 0-25.166-11.29-25.166-25.167v-41.233h1.066 64.268 80.332c8.284 0 15-6.716 15-15v-49.267h1.068 64.266 80.335c8.284 0 15-6.716 15-15v-49.267h65.332 64.268 1.066zm-16.067-199.766h-34.268v-34.267h34.268z"/></svg>