<?xml version="1.0" ?><!DOCTYPE svg  PUBLIC '-//W3C//DTD SVG 1.1//EN'  'http://www.w3.org/Graphics/SVG/1.1/DTD/svg11.dtd'><svg enable-background="new 0 0 128 128" height="128px" id="Layer_1" version="1.1" viewBox="0 0 128 128" width="128px" xml:space="preserve" xmlns="http://www.w3.org/2000/svg" xmlns:xlink="http://www.w3.org/1999/xlink"><g><path d="M64.044,114.135c-27.642,0-50.129-22.488-50.129-50.127c0-27.642,22.487-50.129,50.129-50.129   c27.643,0,50.131,22.487,50.131,50.129C114.175,91.646,91.687,114.135,64.044,114.135z M64.044,17.878   c-25.436,0-46.129,20.693-46.129,46.129c0,25.434,20.693,46.127,46.129,46.127c25.437,0,46.131-20.693,46.131-46.127   C110.175,38.572,89.48,17.878,64.044,17.878z"/></g><g><path d="M49.675,82.566c-1.104,0-2-0.896-2-2V53.384c0-1.104,0.896-2,2-2s2,0.896,2,2v27.182   C51.675,81.67,50.779,82.566,49.675,82.566z"/><path d="M62.634,82.566c-1.104,0-2-0.896-2-2V53.382c0-1.104,0.896-2,2-2s2,0.896,2,2v27.184   C64.634,81.67,63.738,82.566,62.634,82.566z"/><path d="M80.489,82.566c-1.104,0-2-0.896-2-2V62.533c0-3.821-3.107-6.93-6.928-6.93s-6.928,3.108-6.928,6.93c0,1.104-0.896,2-2,2   s-2-0.896-2-2c0-6.026,4.902-10.93,10.928-10.93s10.928,4.903,10.928,10.93v18.034C82.489,81.67,81.594,82.566,80.489,82.566z"/><circle cx="49.672" cy="43.517" r="2.509"/></g></svg>