<svg id="Capa_1" enable-background="new 0 0 512.002 512.002" height="512" viewBox="0 0 512.002 512.002" width="512" xmlns="http://www.w3.org/2000/svg"><g><path d="m378.501 215h25c12.406 0 22.5-10.093 22.5-22.5 0-5.757-2.174-11.017-5.743-15 3.569-3.983 5.743-9.243 5.743-15 0-12.407-10.094-22.5-22.5-22.5h-25c-4.143 0-7.5 3.358-7.5 7.5v60c0 4.142 3.357 7.5 7.5 7.5zm7.5-60h17.5c4.136 0 7.5 3.364 7.5 7.5s-3.364 7.5-7.5 7.5h-17.5zm0 30h17.5c4.136 0 7.5 3.364 7.5 7.5s-3.364 7.5-7.5 7.5h-17.5z"/><path d="m300.867 214.524c3.883 1.454 8.202-.51 9.656-4.389l3.8-10.133h23.355l3.8 10.133c1.454 3.879 5.773 5.843 9.656 4.389 3.878-1.455 5.843-5.777 4.389-9.656l-22.507-59.998c-.735-1.957-2.272-3.6-4.382-4.392-3.883-1.454-8.202.51-9.656 4.389l-22.5 60c-1.454 3.88.511 8.203 4.389 9.657zm25.134-45.662 6.052 16.14h-12.105z"/><path d="m466.001 0c-12.406 0-22.5 10.093-22.5 22.5v32.5h-165v-32.5c0-12.407-10.094-22.5-22.5-22.5s-22.5 10.093-22.5 22.5v482c0 4.142 3.357 7.5 7.5 7.5h30c4.143 0 7.5-3.358 7.5-7.5v-114.5h165v114.5c0 4.142 3.357 7.5 7.5 7.5h30c4.143 0 7.5-3.358 7.5-7.5v-482c0-12.407-10.094-22.5-22.5-22.5zm-217.5 22.5c0-4.136 3.364-7.5 7.5-7.5s7.5 3.364 7.5 7.5v32.5h-15zm15 474.5h-15v-167h15zm180-122h-75v-7.5c0-4.142-3.357-7.5-7.5-7.5s-7.5 3.358-7.5 7.5v7.5h-75v-45h165zm30 122h-15v-167h15zm0-182h-225v-15h225zm0-30h-225v-215h225zm0-230h-15v-32.5c0-4.136 3.364-7.5 7.5-7.5s7.5 3.364 7.5 7.5z"/><path d="m151.002 210c28.948 0 52.5-23.551 52.5-52.5v-52.5c0-24.813-20.187-45-45-45-13.093 0-25.207 5.509-33.753 15.233-14.777 1.852-26.247 14.496-26.247 29.767v52.5c0 28.949 23.552 52.5 52.5 52.5zm-37.5-105c0-8.271 6.729-15 14.999-15 2.358 0 4.58-1.109 5.996-2.995 5.732-7.63 14.482-12.005 24.005-12.005 16.542 0 30 13.458 30 30v15.808c-9.537-9.745-22.821-15.808-37.5-15.808s-27.963 6.063-37.5 15.808zm37.5 15c20.678 0 37.5 16.822 37.5 37.5s-16.822 37.5-37.5 37.5-37.5-16.822-37.5-37.5 16.822-37.5 37.5-37.5z"/><circle cx="166.001" cy="262.5" r="7.5"/><circle cx="166.001" cy="292.5" r="7.5"/><path d="m213.373 497.385-24.872-8.291v-85.384c8.729-3.096 15-11.433 15-21.21v-130c0-15.164-12.337-27.5-27.5-27.5h-50c-12.563 0-23.178 8.472-26.452 20h-53.548c-4.136 0-7.5-3.364-7.5-7.5s3.364-7.5 7.5-7.5h15c4.143 0 7.5-3.358 7.5-7.5v-35c0-4.142-3.357-7.5-7.5-7.5s-7.5 3.358-7.5 7.5v27.5h-7.5c-12.406 0-22.5 10.093-22.5 22.5s10.094 22.5 22.5 22.5h52.5v122.5c0 9.777 6.271 18.114 15 21.21v85.384l-24.872 8.291c-3.93 1.31-6.053 5.557-4.743 9.487 1.048 3.143 3.974 5.13 7.114 5.13.786 0 1.586-.125 2.373-.387l30-10c3.063-1.021 5.128-3.887 5.128-7.115v-90.79c8.729-3.096 15-11.433 15-21.21v-8.036c4.95.712 10.05.713 15 0v8.036c0 9.777 6.271 18.114 15 21.21v90.79c0 3.228 2.065 6.094 5.128 7.115l30 10c.787.262 1.587.387 2.373.387 3.14 0 6.066-1.988 7.114-5.13 1.31-3.93-.813-8.177-4.743-9.487zm-99.872-244.885c0-6.893 5.607-12.5 12.5-12.5h50c6.893 0 12.5 5.607 12.5 12.5v62.5h-75zm67.5 137.5c-4.136 0-7.5-3.364-7.5-7.5v-17.571c0-2.435-1.182-4.718-3.17-6.124-1.283-.908-2.8-1.376-4.331-1.376-.84 0-1.686.141-2.499.429-8.041 2.844-16.961 2.842-25 0-2.295-.813-4.842-.459-6.83.947-1.988 1.405-3.17 3.688-3.17 6.124v17.571c0 4.136-3.364 7.5-7.5 7.5s-7.5-3.364-7.5-7.5v-52.5h75v52.5c0 4.136-3.364 7.5-7.5 7.5z"/></g></svg>