<svg id="Capa_1" enable-background="new 0 0 511.951 511.951" height="512" viewBox="0 0 511.951 511.951" width="512" xmlns="http://www.w3.org/2000/svg"><g id="XMLID_950_"><g id="XMLID_456_"><path id="XMLID_457_" d="m202.917 291.102c-5.523 0-10 4.477-10 10v45.873c0 12.682-10.318 23-23 23s-23-10.318-23-23v-181.999c0-12.682 10.318-23 23.001-23 12.682 0 22.999 10.318 22.999 23v46.126c0 5.523 4.477 10 10 10s10-4.477 10-10v-46.126c0-23.711-19.29-43-43-43s-43 19.289-43 43v181.999c0 23.711 19.29 43 43.001 43 23.71 0 42.999-19.289 42.999-43v-45.873c0-5.523-4.478-10-10-10z"/><path id="XMLID_483_" d="m288.517 177.115h-18.605c.541-1.565 1.093-3.129 1.665-4.693 4.589-12.528 6.795-25.708 6.556-39.174-.499-28.129-11.836-54.637-31.921-74.641-20.085-20.003-46.639-31.233-74.77-31.621-29.223-.414-56.743 10.663-77.524 31.162-20.786 20.501-32.233 47.869-32.233 77.062 0 13.289 2.384 26.27 7.085 38.583.421 1.103.821 2.213 1.224 3.322h-18.678c-28.295 0-51.316 23.02-51.316 51.316v55.089c0 28.296 23.021 51.316 51.316 51.316h18.605c-.541 1.565-1.093 3.129-1.666 4.693-4.589 12.527-6.794 25.707-6.556 39.175.5 28.129 11.836 54.637 31.922 74.64 20.084 20.003 46.639 31.233 74.77 31.621.515.007 1.025.011 1.54.011 28.635 0 55.569-11.036 75.985-31.172 20.786-20.501 32.233-47.869 32.233-77.062 0-13.287-2.384-26.268-7.086-38.583-.421-1.103-.821-2.213-1.224-3.322h18.676c28.296 0 51.316-23.021 51.316-51.316v-55.089c.002-28.297-23.019-51.317-51.314-51.317zm-237.201 137.722c-17.268 0-31.316-14.049-31.316-31.317v-55.089c0-17.268 14.048-31.316 31.316-31.316h24.908c4.949 18.963 7.459 38.671 7.459 58.861 0 19.404-2.598 39.116-7.717 58.861zm180.557 124.728c-16.941 16.71-39.361 25.747-63.205 25.403-47.119-.65-86.134-39.506-86.971-86.618-.195-10.992 1.601-21.738 5.339-31.941 11.046-30.159 16.647-60.585 16.647-90.433 0-31.059-5.46-61.109-16.23-89.317-3.829-10.027-5.77-20.609-5.77-31.45 0-23.798 9.332-46.109 26.278-62.822 16.644-16.416 38.6-25.412 61.949-25.412.418 0 .837.003 1.256.009 47.12.65 86.134 39.506 86.971 86.618.194 10.991-1.602 21.737-5.339 31.941-11.046 30.16-16.647 60.586-16.647 90.433 0 31.058 5.461 61.108 16.23 89.317 3.829 10.028 5.77 20.61 5.77 31.45-.001 23.798-9.333 46.108-26.278 62.822zm87.96-156.045c0 17.268-14.049 31.316-31.316 31.316h-24.908c-4.948-18.963-7.459-38.671-7.459-58.861 0-19.404 2.598-39.116 7.718-58.861h24.649c17.268 0 31.316 14.048 31.316 31.316z"/><path id="XMLID_488_" d="m499.975 325.995-38.048-49.468c-1.894-2.461-4.822-3.903-7.927-3.903s-6.033 1.442-7.927 3.903l-38.048 49.468c-17.698 23.012-15.564 55.844 4.963 76.372 10.955 10.955 25.52 16.987 41.012 16.987s30.058-6.033 41.012-16.987c20.527-20.527 22.661-53.36 4.963-76.372zm-19.106 62.23c-7.177 7.177-16.719 11.129-26.869 11.129-10.149 0-19.692-3.953-26.869-11.13-13.449-13.449-14.848-34.959-3.252-50.036l30.121-39.162 30.121 39.162c11.596 15.077 10.197 36.588-3.252 50.037z"/><path id="XMLID_489_" d="m454 232.615c2.63 0 5.21-1.07 7.069-2.93 1.86-1.86 2.931-4.44 2.931-7.07s-1.07-5.21-2.931-7.07c-1.859-1.86-4.439-2.93-7.069-2.93s-5.21 1.07-7.07 2.93-2.93 4.44-2.93 7.07 1.069 5.21 2.93 7.07c1.86 1.861 4.44 2.93 7.07 2.93z"/><path id="XMLID_490_" d="m454 172.606c2.63 0 5.21-1.07 7.069-2.93 1.86-1.86 2.931-4.44 2.931-7.07s-1.07-5.21-2.931-7.07c-1.859-1.86-4.439-2.93-7.069-2.93s-5.21 1.07-7.07 2.93-2.93 4.44-2.93 7.07 1.069 5.21 2.93 7.07c1.86 1.86 4.44 2.93 7.07 2.93z"/><path id="XMLID_503_" d="m454 112.595c2.63 0 5.21-1.07 7.069-2.93 1.86-1.86 2.931-4.44 2.931-7.07s-1.07-5.21-2.931-7.07c-1.859-1.86-4.439-2.93-7.069-2.93s-5.21 1.07-7.07 2.93-2.93 4.44-2.93 7.07 1.069 5.21 2.93 7.07c1.86 1.861 4.44 2.93 7.07 2.93z"/><path id="XMLID_504_" d="m202.92 246.106c-2.64 0-5.22 1.06-7.08 2.93-1.86 1.86-2.92 4.44-2.92 7.07s1.06 5.21 2.92 7.07c1.87 1.86 4.44 2.93 7.08 2.93 2.63 0 5.21-1.07 7.07-2.93s2.93-4.44 2.93-7.07-1.07-5.21-2.93-7.07c-1.86-1.87-4.44-2.93-7.07-2.93z"/></g></g></svg>