<?xml version="1.0"?>
<svg xmlns="http://www.w3.org/2000/svg" id="Outline" viewBox="0 0 512 512" width="512" height="512"><path d="M400,384h32a8,8,0,0,0,0-16H400a8,8,0,0,0,0,16Z"/><path d="M440,400H393a8,8,0,0,0,0,16h47a8,8,0,0,0,0-16Z"/><path d="M480,433.376V344a8,8,0,0,0-8-8H368v-8a40.045,40.045,0,0,0-40-40H265.631a112.769,112.769,0,0,0,43.548-48H312a40.045,40.045,0,0,0,40-40V160c0-79.4-64.6-144-144-144S64,80.6,64,160v40a40.045,40.045,0,0,0,40,40h2.821a112.769,112.769,0,0,0,43.548,48H88a40.063,40.063,0,0,0-37.713,26.686L31.155,276.422l-.006,0a7.993,7.993,0,1,0-14.3,7.15l-.006,0L48,345.888V488a8,8,0,0,0,8,8H472a24.027,24.027,0,0,0,24-24V456A24.039,24.039,0,0,0,480,433.376ZM352,328v8H272V304h56A24.027,24.027,0,0,1,352,328ZM240,344V480H216V318l26.7,20.022A7.974,7.974,0,0,0,240,344Zm-80-40h32l-32,24Zm64,0h32v24Zm91.408-80.246A111.652,111.652,0,0,0,320,192V177.376a24,24,0,0,1-4.592,46.378ZM208,32A128.145,128.145,0,0,1,336,160v8.022a39.841,39.841,0,0,0-16-7.217V160a80.091,80.091,0,0,0-80-80,8,8,0,0,0-8,8c0,35.29-25.121,64-56,64H104a8,8,0,0,0-8,8v.805a39.841,39.841,0,0,0-16,7.217V160A128.145,128.145,0,0,1,208,32ZM128.805,184H112V168h24.022A39.841,39.841,0,0,0,128.805,184ZM168,168a24,24,0,1,1-24,24A24.028,24.028,0,0,1,168,168ZM80,200a24.039,24.039,0,0,1,16-22.624V192a111.652,111.652,0,0,0,4.592,31.754A24.035,24.035,0,0,1,80,200Zm32.336,0h16.469a40,40,0,1,0,68.214-35.486c27.136-9.222,47.508-35.806,50.574-68.048A64.082,64.082,0,0,1,304,160v24H287.2a40,40,0,1,0,0,16h16.469a96,96,0,0,1-191.328,0ZM272,192a24,24,0,1,1-24-24A24.028,24.028,0,0,1,272,192ZM64,328a24.027,24.027,0,0,1,24-24h56v40a8,8,0,0,0,12.8,6.4L200,318V480H144V440a8,8,0,0,0-8-8H108.944L64,342.112Zm0,49.888,28.521,57.041A24.019,24.019,0,0,0,80,456v16a23.889,23.889,0,0,0,1.376,8H64ZM104,480a8.009,8.009,0,0,1-8-8V456a8.009,8.009,0,0,1,8-8h24v32Zm152,0V352h96V480Zm176-40v40H368V352h96v80H440A8,8,0,0,0,432,440Zm48,32a8.009,8.009,0,0,1-8,8H448V448h24a8.009,8.009,0,0,1,8,8Z"/><path d="M227.562,241.344c-13.345,8.9-25.779,8.9-39.124,0a8,8,0,1,0-8.876,13.312c9.3,6.2,18.871,9.3,28.438,9.3s19.136-3.1,28.438-9.3a8,8,0,0,0-8.876-13.312Z"/><circle cx="248" cy="192" r="8"/><circle cx="168" cy="192" r="8"/></svg>
